<?xml version="1.0" encoding="UTF-8"?>
<svg width="512" height="512" viewBox="0 0 512 512" xmlns="http://www.w3.org/2000/svg" role="img" aria-labelledby="sudostakeTwitterAvatarTitle">
  <title id="sudostakeTwitterAvatarTitle">SudoStake social avatar</title>
  <defs>
    <linearGradient id="sudostakeAvatarBgGradient" x1="10%" y1="6%" x2="92%" y2="94%">
      <stop offset="0%" stop-color="#1f2836" />
      <stop offset="55%" stop-color="#121a27" />
      <stop offset="100%" stop-color="#0a1019" />
    </linearGradient>
    <radialGradient id="sudostakeAvatarGlow" cx="50%" cy="24%" r="78%">
      <stop offset="0%" stop-color="#c9d9ee" stop-opacity="0.3" />
      <stop offset="100%" stop-color="#0b111b" stop-opacity="0" />
    </radialGradient>
    <linearGradient id="sudostakeAvatarMarkGradient" x1="8%" y1="12%" x2="92%" y2="88%">
      <stop offset="0%" stop-color="#f6fbff" />
      <stop offset="52%" stop-color="#d8e7f8" />
      <stop offset="100%" stop-color="#9ab4d3" />
    </linearGradient>
  </defs>

  <rect width="512" height="512" rx="135" fill="url(#sudostakeAvatarBgGradient)" />
  <rect width="512" height="512" rx="135" fill="url(#sudostakeAvatarGlow)" />
  <rect x="33" y="33" width="446" height="446" rx="113" fill="none" stroke="#d5e1f0" stroke-opacity="0.2" stroke-width="4" />

  <path
    d="M113 203C155 179 207 181 256 203C305 225 357 227 399 203"
    fill="none"
    stroke="url(#sudostakeAvatarMarkGradient)"
    stroke-width="44"
    stroke-linecap="round"
    stroke-linejoin="round"
  />
  <path
    d="M113 294C155 271 207 272 256 294C305 316 357 318 399 294"
    fill="none"
    stroke="url(#sudostakeAvatarMarkGradient)"
    stroke-width="44"
    stroke-linecap="round"
    stroke-linejoin="round"
  />

  <path
    d="M130 188C165 170 208 170 256 188C304 206 347 206 382 188"
    fill="none"
    stroke="#ffffff"
    stroke-opacity="0.28"
    stroke-width="9"
    stroke-linecap="round"
  />
  <path
    d="M130 280C165 262 208 262 256 280C304 298 347 298 382 280"
    fill="none"
    stroke="#ffffff"
    stroke-opacity="0.2"
    stroke-width="9"
    stroke-linecap="round"
  />
</svg>
