<?xml version="1.0" encoding="UTF-8"?>
<svg width="280" height="280" viewBox="0 0 280 280" xmlns="http://www.w3.org/2000/svg" role="img" aria-labelledby="sudostakeLogoLegacyTitle">
  <title id="sudostakeLogoLegacyTitle">Sudostake legacy identity mark</title>
  <defs>
    <linearGradient id="backgroundGradientLegacy" x1="0%" y1="0%" x2="100%" y2="100%">
      <stop offset="0%" stop-color="#0b1c2a" />
      <stop offset="100%" stop-color="#132d4a" />
    </linearGradient>
    <linearGradient id="markGradientLegacy" x1="0%" y1="0%" x2="100%" y2="100%">
      <stop offset="0%" stop-color="#00d8c5" />
      <stop offset="100%" stop-color="#1c7dd7" />
    </linearGradient>
    <linearGradient id="haloGradientLegacy" x1="0%" y1="100%" x2="100%" y2="0%">
      <stop offset="0%" stop-color="#0f2f52" stop-opacity="0" />
      <stop offset="100%" stop-color="#1c7dd7" stop-opacity="0.6" />
    </linearGradient>
  </defs>

  <!-- Background globe -->
  <rect width="280" height="280" rx="32" fill="url(#backgroundGradientLegacy)" />
  <circle cx="140" cy="140" r="110" fill="none" stroke="url(#haloGradientLegacy)" stroke-width="6" />

  <!-- Stylized S mark -->
  <path
    d="M108 86c0-14.4 14.3-24 29-24h16c11 0 21.2 6.3 25.5 16.4L197 135c4 9.6-.5 21.3-10.5 26.2-10.1 5-22.5 1.5-28.4-7.5l-11.8-14"
    fill="none"
    stroke="url(#markGradientLegacy)"
    stroke-width="20"
    stroke-linecap="round"
    stroke-linejoin="round"
  />
  <path
    d="M173.5 120c10.2 14.3 2.5 34.6-15 39.6-18 5.1-34.5-6.1-38-24.8s3-38.3 20.8-44.8c17.1-6.3 32.9-1 40.5 10.9"
    fill="none"
    stroke="url(#markGradientLegacy)"
    stroke-width="18"
    stroke-linecap="round"
    stroke-linejoin="round"
  />
</svg>
